<svg xmlns="http://www.w3.org/2000/svg" viewBox="-50 -50 100 100">
  <g>
    <path
      fill="none"
      stroke="#00bcd4"
      stroke-width="7.5"
      d="
        M 28.28 -28.28 A 40.00 40.00 0 0 0 20 -34.64
        M 10.35 -38.64 A 40.00 40.00 0 0 0 0 -40
        M -10.35 -38.64 A 40.00 40.00 0 0 0 -20 -34.64
        M -28.28 -28.28 A 40.00 40.00 0 0 0 -34.64 -20
        M -38.64 -10.35 A 40.00 40.00 0 0 0 -40 0
        M -38.64 10.35 A 40.00 40.00 0 0 0 -34.64 20
        M -28.28 28.28 A 40.00 40.00 0 0 0 40 0
      "
    />
    <path
      fill="none"
      stroke="#009688"
      stroke-width="7.5"
      d="
        M 0.00 25.00 A 25.00 25.00 0 0 0 25 0
        M 0.00 -25.00 A 25.00 25.00 0 0 0 -25 0
      "
    />
  </g>
</svg>
