<svg xmlns="http://www.w3.org/2000/svg" viewBox="-50 -50 100 100">
  <g>
    <path
      fill="none"
      stroke="#00bcd4"
      stroke-width="8"
      transform="scale(1)"
      d="
        M -9.16 -44.06 A 45.00 45.00 0 0 0 -16.98 -41.67
        M -36.16 -26.78 A 45.00 45.00 0 0 0 -40.42 -19.79
        M -43.33 -12.14 A 45.00 45.00 0 0 0 -44.81 -4.09
        M -40.42 19.79 A 45.00 45.00 0 0 0 -36.16 26.78
      "
    />
    <path
      fill="none"
      stroke="#009688"
      stroke-width="8"
      transform="scale(0.707106781)"
      d="
        M 22.50 -38.97 A 45.00 45.00 0 0 0 15.07 -42.40
        M 7.14 -44.43 A 45.00 45.00 0 0 0 -1.02 -44.99
        M -9.16 -44.06 A 45.00 45.00 0 0 0 -16.98 -41.67
        M -24.25 -37.91 A 45.00 45.00 0 0 0 -30.71 -32.89
        M -36.16 -26.78 A 45.00 45.00 0 0 0 -40.42 -19.79
        M -43.33 -12.14 A 45.00 45.00 0 0 0 -44.81 -4.09
        M -44.81 4.09 A 45.00 45.00 0 0 0 -43.33 12.14
        M -40.42 19.79 A 45.00 45.00 0 0 0 -36.16 26.78
        M -30.71 32.89 A 45.00 45.00 0 0 0 -24.25 37.91
        M -16.98 41.67 A 45.00 45.00 0 0 0 -9.16 44.06
        M -1.02 44.99 A 45.00 45.00 0 0 0 7.14 44.43
        M 15.07 42.40 A 45.00 45.00 0 0 0 22.50 38.97
      "
    />
    <path
      fill="none"
      stroke="#4caf50"
      stroke-width="8"
      transform="scale(0.5)"
      d="
        M 22.50 -38.97 A 45.00 45.00 0 0 0 15.07 -42.40
        M 7.14 -44.43 A 45.00 45.00 0 0 0 -1.02 -44.99
        M -9.16 -44.06 A 45.00 45.00 0 0 0 -16.98 -41.67
        M -24.25 -37.91 A 45.00 45.00 0 0 0 -30.71 -32.89
        M -43.33 -12.14 A 45.00 45.00 0 0 0 -44.81 -4.09
        M -44.81 4.09 A 45.00 45.00 0 0 0 -43.33 12.14
        M -16.98 41.67 A 45.00 45.00 0 0 0 -9.16 44.06
        M -1.02 44.99 A 45.00 45.00 0 0 0 7.14 44.43
        M 15.07 42.40 A 45.00 45.00 0 0 0 22.50 38.97
      "
    />
  </g>
</svg>
